<svg width="103" height="34" viewBox="0 0 103 34" fill="none" xmlns="http://www.w3.org/2000/svg">
<path d="M29.8966 22.642V11.1916H32.3479V21.9808L30.9932 20.5777H37.6216V22.642H29.8966ZM37.9383 22.642V13.9978H40.3574V22.642H37.9383ZM37.8899 12.9333V10.9981H40.3897V12.9333H37.8899ZM43.9455 22.642L40.7845 13.9978H43.3165L45.3647 20.2068L47.3968 13.9978H49.9288L46.7517 22.642H43.9455ZM50.1693 22.642V13.9978H52.4594L52.54 16.5136L52.3626 16.4652C52.5024 15.5944 52.7497 14.9654 53.1045 14.5783C53.4593 14.1913 53.9485 13.9978 54.5721 13.9978H55.3623V15.9975H54.5721C54.1205 15.9975 53.7496 16.0567 53.4593 16.1749C53.169 16.2932 52.9486 16.4814 52.7981 16.7394C52.6583 16.9974 52.5884 17.3469 52.5884 17.7877V22.642H50.1693ZM59.4871 22.8356C58.6055 22.8356 57.8368 22.6528 57.1809 22.2872C56.5251 21.9109 56.0144 21.3841 55.6488 20.7067C55.2833 20.0294 55.1005 19.2338 55.1005 18.3199C55.1005 17.406 55.2833 16.6158 55.6488 15.9492C56.0144 15.2718 56.5251 14.745 57.1809 14.3687C57.8368 13.9924 58.6055 13.8042 59.4871 13.8042C60.3688 13.8042 61.1375 13.9924 61.7934 14.3687C62.4492 14.745 62.9599 15.2718 63.3255 15.9492C63.691 16.6158 63.8738 17.406 63.8738 18.3199C63.8738 19.2338 63.691 20.0294 63.3255 20.7067C62.9599 21.3841 62.4492 21.9109 61.7934 22.2872C61.1375 22.6528 60.3688 22.8356 59.4871 22.8356ZM59.4871 20.9809C60.0892 20.9809 60.5569 20.7497 60.8902 20.2874C61.2235 19.8144 61.3902 19.1585 61.3902 18.3199C61.3902 17.4813 61.2235 16.8308 60.8902 16.3685C60.5569 15.8954 60.0892 15.6589 59.4871 15.6589C58.8851 15.6589 58.4174 15.8954 58.0841 16.3685C57.7508 16.8308 57.5841 17.4813 57.5841 18.3199C57.5841 19.1585 57.7508 19.8144 58.0841 20.2874C58.4174 20.7497 58.8851 20.9809 59.4871 20.9809ZM69.392 22.9001C68.4029 22.9001 67.5535 22.7334 66.8439 22.4001C66.1343 22.0668 65.5806 21.5991 65.1828 20.997C64.7849 20.3949 64.5592 19.6853 64.5054 18.8682L66.9729 18.7553C67.0374 19.2069 67.1664 19.594 67.36 19.9165C67.5642 20.2283 67.833 20.4648 68.1663 20.6261C68.5104 20.7874 68.9297 20.868 69.4243 20.868C69.8328 20.868 70.1769 20.8196 70.4564 20.7229C70.7467 20.6261 70.9671 20.481 71.1176 20.2874C71.2682 20.0832 71.3434 19.8359 71.3434 19.5456C71.3434 19.2768 71.2789 19.0456 71.1499 18.8521C71.0209 18.6478 70.7736 18.465 70.408 18.3038C70.0425 18.1317 69.5049 17.9651 68.7953 17.8038C67.8169 17.578 67.0267 17.3254 66.4246 17.0458C65.8332 16.7663 65.4032 16.4169 65.1344 15.9975C64.8656 15.5675 64.7312 15.0299 64.7312 14.3848C64.7312 13.6967 64.8978 13.0946 65.2311 12.5785C65.5752 12.0625 66.0698 11.6593 66.7149 11.369C67.36 11.0787 68.1287 10.9336 69.0211 10.9336C69.9672 10.9336 70.7682 11.1002 71.4241 11.4335C72.0799 11.7668 72.5906 12.2237 72.9562 12.8043C73.3325 13.3849 73.5582 14.0515 73.6335 14.8041L71.1821 14.9331C71.1499 14.5353 71.0424 14.1913 70.8596 13.901C70.6768 13.5999 70.4295 13.3688 70.1177 13.2075C69.8059 13.0462 69.4296 12.9656 68.9888 12.9656C68.4297 12.9656 67.9889 13.0892 67.6664 13.3365C67.3546 13.5838 67.1987 13.9064 67.1987 14.3042C67.1987 14.5837 67.2686 14.8202 67.4083 15.0138C67.5589 15.1966 67.8008 15.3578 68.1341 15.4976C68.4781 15.6374 68.9619 15.7718 69.5855 15.9008C70.6499 16.1158 71.4886 16.39 72.1014 16.7233C72.725 17.0458 73.1658 17.4329 73.4238 17.8845C73.6819 18.336 73.8109 18.8521 73.8109 19.4327C73.8109 20.1423 73.6281 20.7605 73.2626 21.2873C72.9078 21.8034 72.3971 22.2012 71.7305 22.4808C71.0746 22.7603 70.2951 22.9001 69.392 22.9001ZM77.5136 22.8356C76.6213 22.8356 75.8902 22.6313 75.3203 22.2227C74.7612 21.8034 74.4817 21.2228 74.4817 20.481C74.4817 19.7176 74.7182 19.1316 75.1913 18.7231C75.6751 18.3038 76.3847 17.9973 77.3201 17.8038L80.1102 17.2555C80.1102 16.6964 79.9811 16.2771 79.7231 15.9975C79.4758 15.7073 79.1156 15.5621 78.6426 15.5621C78.1802 15.5621 77.8201 15.6696 77.562 15.8847C77.304 16.0889 77.1373 16.3954 77.0621 16.8039L74.6268 16.691C74.7881 15.7449 75.2128 15.0299 75.9009 14.5461C76.5998 14.0515 77.5136 13.8042 78.6426 13.8042C79.9328 13.8042 80.9004 14.1106 81.5455 14.7235C82.2013 15.3363 82.5293 16.2341 82.5293 17.4168V20.3681C82.5293 20.6154 82.5669 20.782 82.6422 20.868C82.7282 20.9433 82.8518 20.9809 83.0131 20.9809H83.255V22.642C83.1797 22.6635 83.0561 22.685 82.8841 22.7065C82.7228 22.728 82.5615 22.7388 82.4002 22.7388C82.0562 22.7388 81.7336 22.6797 81.4326 22.5614C81.1423 22.4431 80.9058 22.2442 80.723 21.9647C80.5402 21.6744 80.4488 21.2658 80.4488 20.739L80.6585 20.9003C80.551 21.2873 80.3574 21.626 80.0779 21.9163C79.8091 22.2066 79.4543 22.4324 79.0135 22.5936C78.5834 22.7549 78.0835 22.8356 77.5136 22.8356ZM78.0942 21.1744C78.492 21.1744 78.8415 21.0992 79.1425 20.9487C79.4436 20.7874 79.6801 20.5562 79.8521 20.2552C80.0241 19.9541 80.1102 19.5993 80.1102 19.1908V18.7715L78.1426 19.1908C77.7556 19.266 77.4599 19.395 77.2556 19.5778C77.0621 19.7499 76.9653 19.9756 76.9653 20.2552C76.9653 20.5455 77.0621 20.7713 77.2556 20.9325C77.4491 21.0938 77.7287 21.1744 78.0942 21.1744ZM86.2514 22.8356C85.359 22.8356 84.6279 22.6313 84.0581 22.2227C83.499 21.8034 83.2195 21.2228 83.2195 20.481C83.2195 19.7176 83.456 19.1316 83.9291 18.7231C84.4129 18.3038 85.1225 17.9973 86.0579 17.8038L88.8479 17.2555C88.8479 16.6964 88.7189 16.2771 88.4609 15.9975C88.2136 15.7073 87.8534 15.5621 87.3803 15.5621C86.918 15.5621 86.5578 15.6696 86.2998 15.8847C86.0418 16.0889 85.8751 16.3954 85.7998 16.8039L83.3646 16.691C83.5259 15.7449 83.9506 15.0299 84.6387 14.5461C85.3375 14.0515 86.2514 13.8042 87.3803 13.8042C88.6705 13.8042 89.6382 14.1106 90.2833 14.7235C90.9391 15.3363 91.267 16.2341 91.267 17.4168V20.3681C91.267 20.6154 91.3047 20.782 91.3799 20.868C91.4659 20.9433 91.5896 20.9809 91.7509 20.9809H91.9928V22.642C91.9175 22.6635 91.7939 22.685 91.6218 22.7065C91.4606 22.728 91.2993 22.7388 91.138 22.7388C90.794 22.7388 90.4714 22.6797 90.1704 22.5614C89.8801 22.4431 89.6435 22.2442 89.4608 21.9647C89.278 21.6744 89.1866 21.2658 89.1866 20.739L89.3963 20.9003C89.2887 21.2873 89.0952 21.626 88.8157 21.9163C88.5469 22.2066 88.1921 22.4324 87.7513 22.5936C87.3212 22.7549 86.8212 22.8356 86.2514 22.8356ZM86.832 21.1744C87.2298 21.1744 87.5792 21.0992 87.8803 20.9487C88.1813 20.7874 88.4179 20.5562 88.5899 20.2552C88.7619 19.9541 88.8479 19.5993 88.8479 19.1908V18.7715L86.8804 19.1908C86.4933 19.266 86.1977 19.395 85.9934 19.5778C85.7998 19.7499 85.7031 19.9756 85.7031 20.2552C85.7031 20.5455 85.7998 20.7713 85.9934 20.9325C86.1869 21.0938 86.4664 21.1744 86.832 21.1744ZM97.1172 22.9001C96.1281 22.9001 95.2787 22.7334 94.5691 22.4001C93.8595 22.0668 93.3058 21.5991 92.908 20.997C92.5102 20.3949 92.2844 19.6853 92.2306 18.8682L94.6981 18.7553C94.7626 19.2069 94.8917 19.594 95.0852 19.9165C95.2895 20.2283 95.5583 20.4648 95.8916 20.6261C96.2356 20.7874 96.6549 20.868 97.1495 20.868C97.5581 20.868 97.9021 20.8196 98.1816 20.7229C98.4719 20.6261 98.6923 20.481 98.8429 20.2874C98.9934 20.0832 99.0687 19.8359 99.0687 19.5456C99.0687 19.2768 99.0041 19.0456 98.8751 18.8521C98.7461 18.6478 98.4988 18.465 98.1333 18.3038C97.7677 18.1317 97.2301 17.9651 96.5205 17.8038C95.5421 17.578 94.7519 17.3254 94.1498 17.0458C93.5585 16.7663 93.1284 16.4169 92.8596 15.9975C92.5908 15.5675 92.4564 15.0299 92.4564 14.3848C92.4564 13.6967 92.6231 13.0946 92.9564 12.5785C93.3004 12.0625 93.795 11.6593 94.4401 11.369C95.0852 11.0787 95.8539 10.9336 96.7463 10.9336C97.6924 10.9336 98.4934 11.1002 99.1493 11.4335C99.8051 11.7668 100.316 12.2237 100.681 12.8043C101.058 13.3849 101.283 14.0515 101.359 14.8041L98.9074 14.9331C98.8751 14.5353 98.7676 14.1913 98.5848 13.901C98.4021 13.5999 98.1548 13.3688 97.843 13.2075C97.5312 13.0462 97.1549 12.9656 96.7141 12.9656C96.155 12.9656 95.7142 13.0892 95.3916 13.3365C95.0798 13.5838 94.9239 13.9064 94.9239 14.3042C94.9239 14.5837 94.9938 14.8202 95.1336 15.0138C95.2841 15.1966 95.526 15.3578 95.8593 15.4976C96.2034 15.6374 96.6872 15.7718 97.3108 15.9008C98.3752 16.1158 99.2138 16.39 99.8266 16.7233C100.45 17.0458 100.891 17.4329 101.149 17.8845C101.407 18.336 101.536 18.8521 101.536 19.4327C101.536 20.1423 101.353 20.7605 100.988 21.2873C100.633 21.8034 100.122 22.2012 99.4557 22.4808C98.7999 22.7603 98.0204 22.9001 97.1172 22.9001Z" fill="black"/>
<g clip-path="url(#clip0_6407_794)">
<path d="M19.2283 14.0479H12.3036L10.1566 7.69775L8.00968 14.0479H1.08499L6.67918 17.979L4.53222 24.3291L10.1566 20.3981L15.7508 24.3291L13.6039 17.979L19.2283 14.0479Z" fill="#586672"/>
<path d="M14.4505 13.2315L15.6601 9.78424L12.485 11.9614L12.9386 13.2315H14.4505ZM8.9168 22.2124L10.1566 25.8411L11.3964 22.2124L10.1566 21.3657L8.9168 22.2124ZM15.8113 17.4649L14.6622 18.2511L15.146 19.7026H19.0468L15.8113 17.4649ZM7.8282 11.9614L4.65312 9.78424L5.86267 13.2315H7.37462L7.8282 11.9614ZM4.50193 17.4649L1.26637 19.7026H5.16718L5.651 18.2511L4.50193 17.4649Z" fill="#111827"/>
</g>
<defs>
<clipPath id="clip0_6407_794">
<rect width="19.3529" height="19.3529" fill="white" transform="translate(0.480247 7.09296)"/>
</clipPath>
</defs>
</svg>
