<svg width="20" height="20" viewBox="0 0 20 20" fill="none" xmlns="http://www.w3.org/2000/svg">
<g clip-path="url(#clip0_6407_796)">
<path d="M19.2283 7.04791H12.3036L10.1566 0.697754L8.00968 7.04791H1.08499L6.67918 10.979L4.53222 17.3291L10.1566 13.3981L15.7508 17.3291L13.6039 10.979L19.2283 7.04791Z" fill="#586672"/>
<path d="M14.4505 6.23147L15.6601 2.78424L12.485 4.96144L12.9386 6.23147H14.4505ZM8.9168 15.2124L10.1566 18.8411L11.3964 15.2124L10.1566 14.3657L8.9168 15.2124ZM15.8113 10.4649L14.6622 11.2511L15.146 12.7026H19.0468L15.8113 10.4649ZM7.8282 4.96144L4.65312 2.78424L5.86267 6.23147H7.37462L7.8282 4.96144ZM4.50193 10.4649L1.26637 12.7026H5.16718L5.651 11.2511L4.50193 10.4649Z" fill="#111827"/>
</g>
<defs>
<clipPath id="clip0_6407_796">
<rect width="19.3529" height="19.3529" fill="white" transform="translate(0.480247 0.0929565)"/>
</clipPath>
</defs>
</svg>
